<mxfile host="app.diagrams.net" agent="Mozilla/5.0 (X11; Linux x86_64; rv:128.0) Gecko/20100101 Firefox/128.0" version="24.7.4">
  <diagram name="Page-1" id="frs2nBQ_8HlfXzXkCP0R">
    <mxGraphModel dx="1059" dy="1295" grid="1" gridSize="10" guides="1" tooltips="1" connect="1" arrows="1" fold="1" page="1" pageScale="1" pageWidth="850" pageHeight="1100" math="0" shadow="0">
      <root>
        <mxCell id="0" />
        <mxCell id="1" parent="0" />
        <mxCell id="i8-1lZGyRsVZkBO309J--1" value="Actor" style="shape=umlActor;verticalLabelPosition=bottom;verticalAlign=top;html=1;outlineConnect=0;" vertex="1" parent="1">
          <mxGeometry x="320" y="460" width="30" height="60" as="geometry" />
        </mxCell>
        <mxCell id="i8-1lZGyRsVZkBO309J--3" value="" style="endArrow=none;html=1;rounded=0;entryX=0;entryY=0.5;entryDx=0;entryDy=0;exitX=0.5;exitY=0.5;exitDx=0;exitDy=0;exitPerimeter=0;" edge="1" parent="1" source="i8-1lZGyRsVZkBO309J--1" target="i8-1lZGyRsVZkBO309J--4">
          <mxGeometry width="50" height="50" relative="1" as="geometry">
            <mxPoint x="370" y="500" as="sourcePoint" />
            <mxPoint x="480" y="460" as="targetPoint" />
          </mxGeometry>
        </mxCell>
        <mxCell id="i8-1lZGyRsVZkBO309J--4" value="Login" style="ellipse;whiteSpace=wrap;html=1;" vertex="1" parent="1">
          <mxGeometry x="490" y="410" width="120" height="80" as="geometry" />
        </mxCell>
        <mxCell id="i8-1lZGyRsVZkBO309J--5" value="Use" style="endArrow=open;endSize=12;dashed=1;html=1;rounded=0;exitX=1;exitY=0.5;exitDx=0;exitDy=0;entryX=0;entryY=0.5;entryDx=0;entryDy=0;" edge="1" parent="1" source="i8-1lZGyRsVZkBO309J--4" target="i8-1lZGyRsVZkBO309J--6">
          <mxGeometry x="0.0009" width="160" relative="1" as="geometry">
            <mxPoint x="670" y="420" as="sourcePoint" />
            <mxPoint x="730" y="380" as="targetPoint" />
            <mxPoint as="offset" />
          </mxGeometry>
        </mxCell>
        <mxCell id="i8-1lZGyRsVZkBO309J--6" value="Sprawdzenie danych konta" style="ellipse;whiteSpace=wrap;html=1;" vertex="1" parent="1">
          <mxGeometry x="730" y="340" width="120" height="80" as="geometry" />
        </mxCell>
        <mxCell id="i8-1lZGyRsVZkBO309J--9" value="Rejestracja" style="ellipse;whiteSpace=wrap;html=1;" vertex="1" parent="1">
          <mxGeometry x="490" y="520" width="120" height="80" as="geometry" />
        </mxCell>
        <mxCell id="i8-1lZGyRsVZkBO309J--10" value="" style="endArrow=none;html=1;rounded=0;entryX=0;entryY=0.5;entryDx=0;entryDy=0;exitX=1;exitY=1;exitDx=0;exitDy=0;exitPerimeter=0;" edge="1" parent="1" source="i8-1lZGyRsVZkBO309J--1" target="i8-1lZGyRsVZkBO309J--9">
          <mxGeometry width="50" height="50" relative="1" as="geometry">
            <mxPoint x="330" y="500" as="sourcePoint" />
            <mxPoint x="380" y="450" as="targetPoint" />
          </mxGeometry>
        </mxCell>
        <mxCell id="i8-1lZGyRsVZkBO309J--16" style="edgeStyle=orthogonalEdgeStyle;rounded=0;orthogonalLoop=1;jettySize=auto;html=1;entryX=0.5;entryY=0;entryDx=0;entryDy=0;" edge="1" parent="1" source="i8-1lZGyRsVZkBO309J--12" target="i8-1lZGyRsVZkBO309J--4">
          <mxGeometry relative="1" as="geometry" />
        </mxCell>
        <mxCell id="i8-1lZGyRsVZkBO309J--22" style="edgeStyle=orthogonalEdgeStyle;rounded=0;orthogonalLoop=1;jettySize=auto;html=1;entryX=1;entryY=0.5;entryDx=0;entryDy=0;" edge="1" parent="1" source="i8-1lZGyRsVZkBO309J--12" target="i8-1lZGyRsVZkBO309J--17">
          <mxGeometry relative="1" as="geometry" />
        </mxCell>
        <mxCell id="i8-1lZGyRsVZkBO309J--23" style="edgeStyle=orthogonalEdgeStyle;rounded=0;orthogonalLoop=1;jettySize=auto;html=1;entryX=1;entryY=0.5;entryDx=0;entryDy=0;" edge="1" parent="1" source="i8-1lZGyRsVZkBO309J--12" target="i8-1lZGyRsVZkBO309J--19">
          <mxGeometry relative="1" as="geometry" />
        </mxCell>
        <mxCell id="i8-1lZGyRsVZkBO309J--12" value="&amp;lt;&amp;lt;serwis&amp;gt;&amp;gt;&lt;br&gt;Serwer" style="shape=umlActor;verticalLabelPosition=bottom;verticalAlign=top;html=1;" vertex="1" parent="1">
          <mxGeometry x="970" y="250" width="30" height="60" as="geometry" />
        </mxCell>
        <mxCell id="i8-1lZGyRsVZkBO309J--15" style="edgeStyle=orthogonalEdgeStyle;rounded=0;orthogonalLoop=1;jettySize=auto;html=1;entryX=0;entryY=1;entryDx=0;entryDy=0;entryPerimeter=0;" edge="1" parent="1" source="i8-1lZGyRsVZkBO309J--6" target="i8-1lZGyRsVZkBO309J--12">
          <mxGeometry relative="1" as="geometry" />
        </mxCell>
        <mxCell id="i8-1lZGyRsVZkBO309J--28" value="" style="edgeStyle=orthogonalEdgeStyle;rounded=0;orthogonalLoop=1;jettySize=auto;html=1;" edge="1" parent="1" source="i8-1lZGyRsVZkBO309J--17" target="i8-1lZGyRsVZkBO309J--27">
          <mxGeometry relative="1" as="geometry" />
        </mxCell>
        <mxCell id="i8-1lZGyRsVZkBO309J--17" value="Email zajęty" style="ellipse;whiteSpace=wrap;html=1;" vertex="1" parent="1">
          <mxGeometry x="940" y="600" width="120" height="80" as="geometry" />
        </mxCell>
        <mxCell id="i8-1lZGyRsVZkBO309J--25" style="edgeStyle=orthogonalEdgeStyle;rounded=0;orthogonalLoop=1;jettySize=auto;html=1;entryX=0.5;entryY=1;entryDx=0;entryDy=0;" edge="1" parent="1" source="i8-1lZGyRsVZkBO309J--19" target="i8-1lZGyRsVZkBO309J--9">
          <mxGeometry relative="1" as="geometry" />
        </mxCell>
        <mxCell id="i8-1lZGyRsVZkBO309J--19" value="Email niezajęty" style="ellipse;whiteSpace=wrap;html=1;" vertex="1" parent="1">
          <mxGeometry x="640" y="689.95" width="150" height="80" as="geometry" />
        </mxCell>
        <mxCell id="i8-1lZGyRsVZkBO309J--21" style="edgeStyle=orthogonalEdgeStyle;rounded=0;orthogonalLoop=1;jettySize=auto;html=1;exitX=1;exitY=0;exitDx=0;exitDy=0;entryX=1;entryY=1;entryDx=0;entryDy=0;entryPerimeter=0;" edge="1" parent="1" source="i8-1lZGyRsVZkBO309J--9" target="i8-1lZGyRsVZkBO309J--12">
          <mxGeometry relative="1" as="geometry" />
        </mxCell>
        <mxCell id="i8-1lZGyRsVZkBO309J--30" style="edgeStyle=orthogonalEdgeStyle;rounded=0;orthogonalLoop=1;jettySize=auto;html=1;entryX=0;entryY=1;entryDx=0;entryDy=0;" edge="1" parent="1" source="i8-1lZGyRsVZkBO309J--27" target="i8-1lZGyRsVZkBO309J--9">
          <mxGeometry relative="1" as="geometry" />
        </mxCell>
        <mxCell id="i8-1lZGyRsVZkBO309J--27" value="Zmiana emaila" style="ellipse;whiteSpace=wrap;html=1;" vertex="1" parent="1">
          <mxGeometry x="850" y="800" width="120" height="80" as="geometry" />
        </mxCell>
      </root>
    </mxGraphModel>
  </diagram>
</mxfile>
